<?xml version="1.0" encoding="utf-8"?>
<!-- Generator: Adobe Illustrator 23.0.1, SVG Export Plug-In . SVG Version: 6.00 Build 0)  -->
<svg version="1.1" id="Layer_1" xmlns="http://www.w3.org/2000/svg" xmlns:xlink="http://www.w3.org/1999/xlink" x="0px" y="0px"
	 viewBox="0 0 579.3 561.7" style="enable-background:new 0 0 579.3 561.7;" xml:space="preserve">
<style type="text/css">
	.st0{display:none;}
	.st1{display:inline;fill:#3AB883;stroke:#000000;stroke-miterlimit:10;}
	.st2{fill:#FFFFFF;}
	.st3{fill:#2B2B29;}
</style>
<g class="st0">
	<rect y="0" class="st1" width="579.3" height="561.7"/>
	
		<image style="display:inline;overflow:visible;enable-background:new    ;" width="703" height="759" xlink:href="F52C7BBA4B962DBF.png"  transform="matrix(0.6678 0 0 0.6678 44.7073 54.8778)">
	</image>
</g>
<g>
	<rect width="579.3" height="561.7"/>
	<path class="st2" d="M195.7,327.8l15.4,57.7l74.4,62.9l74.5-63.2l15-57.4c0,0-41,20.3-89.6,18.9S210.2,333.8,195.7,327.8z"/>
	<path class="st2" d="M101.9,252.5c0,0-2.6,33.5,57.5,114.7s117.3,152.2,117.3,152.2S118.4,416.9,88.1,394.2l58.8-20
		c0,0,3-0.7,0.3-5.3l-81.5-87.8c0,0-1-4.9,2.3-7.6S101.9,252.5,101.9,252.5z"/>
	<path class="st3" d="M114.2,279.3c0,0,18.3,7.5,41.8,11.4h6.7c0,0,2.6-0.8,5,6.5l19.1,81c0,0,0.6,6.2,7.3,11s71.1,60.3,71.1,60.3
		v48.6c0,0-107.4-135.4-108.2-138c-0.8-2.6-44.8-78.4-44.8-78.4S111.1,279.3,114.2,279.3z"/>
	<path class="st2" d="M157.3,187l103.4,44.5c0,0,0.7,0.4,1.6,0s0-1.3,0-1.3l-157.9-87.8l-8.6-8l189.5-93.1l189.5,93l-9.2,8.7
		l-156.3,86.6c0,0-1,0.2-0.7,1.6s3.1-0.2,3.1-0.2l100.7-43.7c0,0,1-0.1,1,1s-0.1,33.9-0.1,33.9s-0.8,5.2-7.1,9.6
		s-121.1,69.6-121.1,69.6l-121.3-69.6c0,0-6.2-4.6-6.4-9.4S157.3,187,157.3,187z"/>
	<path class="st2" d="M426.2,181.2l1.5,91.9c0,0,9.2-8.5,8.9-9.8c-0.4-1.3,6.2,7.4,10.9,8.5l-1.1-97.5L426.2,181.2z"/>
	<path class="st2" d="M305,312.4c0,0-1.2-0.5,3.1-3l55.4-26.6c0,0,5.4-1.2,7.5,0.9c2,2,4.3,3.2,3.8,9.4c0,0-2.9,8.5-14.4,13.5
		c-11.5,5-12.8,5.3-26.8,6.5s-27.5,0-27.5,0L305,312.4z"/>
	<path class="st2" d="M265.9,312.4c0,0,1.2-0.5-3.1-3L207,282.8c0,0-5.4-1.2-7.5,0.9c-2.1,2-4.3,3.2-3.8,9.4c0,0,2.9,8.5,14.4,13.5
		c11.5,5,12.8,5.3,26.9,6.5c14.1,1.2,27.7,0,27.7,0L265.9,312.4z"/>
	<path class="st2" d="M468.6,253.5c0,0,2.6,33.5-57.5,114.7S293.8,520.4,293.8,520.4s158.4-102.5,188.6-125.2l-58.8-20
		c0,0-3-0.7-0.3-5.3l81.5-87.8c0,0,1-4.9-2.3-7.6S468.6,253.5,468.6,253.5z"/>
	<path class="st3" d="M456.3,280.3c0,0-18.3,7.5-41.8,11.4h-6.7c0,0-2.6-0.8-5,6.5l-19,81c0,0-0.6,6.2-7.3,11s-71.1,60.3-71.1,60.3
		v48.6c0,0,107.4-135.4,108.2-138c0.8-2.6,44.8-78.4,44.8-78.4S459.4,280.3,456.3,280.3z"/>
</g>
</svg>
