<?xml version="1.0" encoding="UTF-8" standalone="no"?>
<svg
   xmlns:dc="http://purl.org/dc/elements/1.1/"
   xmlns:cc="http://creativecommons.org/ns#"
   xmlns:rdf="http://www.w3.org/1999/02/22-rdf-syntax-ns#"
   xmlns:svg="http://www.w3.org/2000/svg"
   xmlns="http://www.w3.org/2000/svg"
   viewBox="0 0 772.35999 748.96002"
   height="748.96002"
   width="772.35999"
   xml:space="preserve"
   id="svg2"
   version="1.1"><metadata
     id="metadata8"><rdf:RDF><cc:Work
         rdf:about=""><dc:format>image/svg+xml</dc:format><dc:type
           rdf:resource="http://purl.org/dc/dcmitype/StillImage" /></cc:Work></rdf:RDF></metadata><defs
     id="defs6"><clipPath
       id="clipPath18"
       clipPathUnits="userSpaceOnUse"><path
         id="path16"
         d="M 0,561.72 H 579.27 V 0 H 0 Z" /></clipPath></defs><g
     transform="matrix(1.3333333,0,0,-1.3333333,0,748.96)"
     id="g10"><g
       id="g12"><g
         clip-path="url(#clipPath18)"
         id="g14"><g
           transform="translate(195.6602,233.9504)"
           id="g20"><path
             id="path22"
             style="fill:#ffffff;fill-opacity:1;fill-rule:nonzero;stroke:none"
             d="m 0,0 15.37,-57.66 74.35,-62.931 74.469,63.16 15.04,57.42 c 0,0 -40.969,-20.34 -89.619,-18.899 C 40.96,-17.471 14.53,-5.99 0,0" /></g><g
           transform="translate(101.9199,309.1702)"
           id="g24"><path
             id="path26"
             style="fill:#ffffff;fill-opacity:1;fill-rule:nonzero;stroke:none"
             d="m 0,0 c 0,0 -2.63,-33.521 57.51,-114.7 60.14,-81.18 117.33,-152.16 117.33,-152.16 0,0 -158.4,102.54 -188.64,125.21 l 58.83,20.049 c 0,0 2.96,0.661 0.33,5.261 l -81.5,87.75 c 0,0 -0.99,4.93 2.3,7.56 C -30.55,-18.4 0,0 0,0" /></g><g
           transform="translate(114.2002,282.4299)"
           id="g28"><path
             id="path30"
             style="fill:#2b2b29;fill-opacity:1;fill-rule:nonzero;stroke:none"
             d="m 0,0 c 0,0 18.3,-7.47 41.83,-11.39 h 6.72 c 0,0 2.61,0.75 5.04,-6.54 l 19.05,-81.049 c 0,0 0.56,-6.161 7.28,-11.021 6.72,-4.86 71.15,-60.32 71.15,-60.32 v -48.56 c 0,0 -107.41,135.43 -108.18,138.03 -0.78,2.6 -44.79,78.4 -44.79,78.4 0,0 -1.16,2.43 1.9,2.45" /></g><g
           transform="translate(157.29,374.7498)"
           id="g32"><path
             id="path34"
             style="fill:#ffffff;fill-opacity:1;fill-rule:nonzero;stroke:none"
             d="m 0,0 103.41,-44.51 c 0,0 0.7,-0.35 1.64,0 0.94,0.35 0,1.29 0,1.29 l -157.88,87.76 -8.59,7.99 189.5,93.13 189.54,-93.05 -9.23,-8.66 -156.26,-86.56 c 0,0 -1.01,-0.22 -0.67,-1.57 0.34,-1.35 3.15,0.22 3.15,0.22 l 100.7,43.73 c 0,0 1.03,0.15 1.03,-1.03 0,-1.18 -0.06,-33.9 -0.06,-33.9 0,0 -0.801,-5.19 -7.07,-9.57 -6.27,-4.38 -121.12,-69.6 -121.12,-69.6 L 6.77,-44.76 c 0,0 -6.22,4.61 -6.4,9.41 C 0.19,-30.55 0,0 0,0" /></g><g
           transform="translate(426.2197,380.55)"
           id="g36"><path
             id="path38"
             style="fill:#ffffff;fill-opacity:1;fill-rule:nonzero;stroke:none"
             d="m 0,0 1.511,-91.88 c 0,0 9.239,8.49 8.869,9.81 -0.38,1.32 6.23,-7.36 10.94,-8.49 L 20.19,6.98 Z" /></g><g
           transform="translate(305.0098,249.2903)"
           id="g40"><path
             id="path42"
             style="fill:#ffffff;fill-opacity:1;fill-rule:nonzero;stroke:none"
             d="m 0,0 c 0,0 -1.189,0.54 3.13,3.029 l 55.431,26.58 c 0,0 5.399,1.191 7.46,-0.859 2.049,-2.051 4.319,-3.24 3.779,-9.4 0,0 -2.92,-8.54 -14.369,-13.51 C 43.98,0.87 42.681,0.55 28.63,-0.641 c -14.05,-1.189 -27.55,0 -27.55,0 z" /></g><g
           transform="translate(265.8799,249.2903)"
           id="g44"><path
             id="path46"
             style="fill:#ffffff;fill-opacity:1;fill-rule:nonzero;stroke:none"
             d="m 0,0 c 0,0 1.19,0.54 -3.15,3.029 l -55.7,26.58 c 0,0 -5.43,1.191 -7.49,-0.859 -2.06,-2.051 -4.34,-3.24 -3.8,-9.4 0,0 2.93,-8.54 14.44,-13.51 11.51,-4.97 12.81,-5.29 26.93,-6.481 14.11,-1.189 27.69,0 27.69,0 z" /></g><g
           transform="translate(468.5996,308.1702)"
           id="g48"><path
             id="path50"
             style="fill:#ffffff;fill-opacity:1;fill-rule:nonzero;stroke:none"
             d="m 0,0 c 0,0 2.631,-33.521 -57.51,-114.7 -60.139,-81.18 -117.33,-152.16 -117.33,-152.16 0,0 158.41,102.54 188.641,125.21 l -58.83,20.049 c 0,0 -2.96,0.661 -0.33,5.261 l 81.5,87.75 c 0,0 0.99,4.93 -2.3,7.56 C 30.551,-18.4 0,0 0,0" /></g><g
           transform="translate(456.3203,281.4299)"
           id="g52"><path
             id="path54"
             style="fill:#2b2b29;fill-opacity:1;fill-rule:nonzero;stroke:none"
             d="m 0,0 c 0,0 -18.301,-7.47 -41.83,-11.39 h -6.721 c 0,0 -2.609,0.75 -5.039,-6.54 l -19.051,-81.049 c 0,0 -0.559,-6.161 -7.279,-11.021 -6.721,-4.86 -71.15,-60.32 -71.15,-60.32 v -48.56 c 0,0 107.41,135.43 108.179,138.03 0.781,2.6 44.79,78.4 44.79,78.4 0,0 1.161,2.43 -1.899,2.45" /></g></g></g></g></svg>